name N:\Shared_Data\HIL\Data Collection\CoPD-X-MoreData\processed\iteration012\grf0012.mot
datacolumns 19
datarows 50
range 2322.991169 2323.072834
endheader
time	ground_force1_vx	ground_force1_vy	ground_force1_vz	ground_force1_px	ground_force1_py	ground_force1_pz	ground_force2_vx	ground_force2_vy	ground_force2_vz	ground_force2_px	ground_force2_py	ground_force2_pz	ground_torque1_x	ground_torque1_y	ground_torque1_z	ground_torque2_x	ground_torque2_y	ground_torque2_z	
2322.991169	-3.245673991	2.668704123	-0.2567036676	5.359632735	0	-0.08826549377	-47.71493258	779.0956128	-55.52898614	5.683051586	0	-0.03995705915	0	0.009906367968	0	0	-5.420839966	0	
2322.992836	-4.435936422	4.273501585	-0.4347614595	5.445389392	0	-0.05207653526	-48.08600953	777.9755426	-55.74119008	5.683578057	0	-0.04001650066	0	0.1287752133	0	0	-5.352137587	0	
2322.994496	-5.723287259	6.192252837	-0.6515679035	5.50051394	0	-0.02895167674	-48.45814573	776.7686267	-55.93804199	5.684106901	0	-0.04007415268	0	0.2465797526	0	0	-5.286117692	0	
2322.996169	-7.070478957	8.420990315	-0.9066741306	5.541758519	0	-0.01176894674	-48.83179021	775.473997	-56.11862108	5.684638096	0	-0.04012986743	0	0.3654649623	0	0	-5.222992394	0	
2322.99783	-8.436828354	10.94870923	-1.198294456	5.575522761	0	0.002191082852	-49.20736628	774.0907386	-56.28201214	5.68517167	0	-0.04018349216	0	0.4821864412	0	0	-5.162966731	0	
2322.999496	-9.781337221	13.7592799	-1.52346775	5.604754718	0	0.01418032042	-49.58526795	772.6178829	-56.42730778	5.685707694	0	-0.0402348693	0	0.5912712833	0	0	-5.106237753	0	
2323.001162	-11.06573316	16.83370119	-1.878298594	5.630970449	0	0.02484201587	-49.9658564	771.0544012	-56.55361064	5.686246292	0	-0.04028383667	0	0.6862978348	0	0	-5.052993624	0	
2323.00284	-12.25703903	20.15236305	-2.258243661	5.654999602	0	0.03452786149	-50.34945667	769.3991984	-56.66003563	5.686787636	0	-0.04033022774	0	0.7607142962	0	0	-5.003412746	0	
2323.004499	-13.3294099	23.69704621	-2.658408934	5.67730864	0	0.04343553903	-50.73635436	767.6511071	-56.74571225	5.687331954	0	-0.04037387186	0	0.8084810956	0	0	-4.957662913	0	
2323.006166	-14.26512925	27.45248234	-3.073828827	5.698159297	0	0.05167621162	-51.12679259	765.8088826	-56.80978685	5.687879522	0	-0.04041459467	0	0.8245814142	0	0	-4.915900473	0	
2323.007834	-15.05478419	31.40739066	-3.499705835	5.717694418	0	0.05931113499	-51.52096911	763.8711982	-56.85142498	5.688430671	0	-0.04045221841	0	0.8053878808	0	0	-4.878269538	0	
2323.009495	-15.69672863	35.55498164	-3.931597123	5.735988514	0	0.06637323062	-51.91903353	761.8366408	-56.86981373	5.688985784	0	-0.04048656239	0	0.7488681653	0	0	-4.8449012	0	
2323.011164	-16.19599637	39.89297382	-4.365541832	5.753079549	0	0.07288063187	-52.32108486	759.7037083	-56.86416405	5.689545297	0	-0.04051744345	0	0.6546239632	0	0	-4.815912796	0	
2323.012832	-16.56284951	44.42320664	-4.798129137	5.768989766	0	0.07884551501	-52.72716917	757.4708064	-56.83371315	5.690109694	0	-0.04054467643	0	0.5237748656	0	0	-4.791407193	0	
2323.0145	-16.81114647	49.1509524	-5.226512103	5.783739424	0	0.08427986336	-53.13727756	755.1362471	-56.77772681	5.690679509	0	-0.04056807473	0	0.3587150532	0	0	-4.771472112	0	
2323.016164	-16.95669607	54.08403686	-5.648375932	5.7973555	0	0.08919903869	-53.55134426	752.698248	-56.69550181	5.691255324	0	-0.04058745088	0	0.1627830415	0	0	-4.756179491	0	
2323.017833	-17.01573455	59.23187324	-6.061871327	5.80987653	0	0.09362367972	-53.96924505	750.1549317	-56.58636822	5.691837763	0	-0.04060261711	0	-0.06010925728	0	0	-4.745584893	0	
2323.019496	-17.00362645	64.60450175	-6.46552452	5.821354439	0	0.09758029824	-54.39079592	747.5043273	-56.4496918	5.692427493	0	-0.04061338598	0	-0.3058427673	0	0	-4.739726946	0	
2323.021167	-16.93385347	70.21170861	-6.858135245	5.831854053	0	0.1011008894	-54.81575193	744.7443719	-56.28487632	5.693025217	0	-0.04061957101	0	-0.5704144196	0	0	-4.738626848	0	
2323.022835	-16.81731977	76.06227841	-7.238672824	5.841450947	0	0.1042218543	-55.24380633	741.8729135	-56.09136589	5.693631674	0	-0.04062098733	0	-0.8501901921	0	0	-4.742287909	0	
2323.024499	-16.66197164	82.16341267	-7.606178804	5.850228277	0	0.1069825148	-55.67459	738.8877147	-55.86864725	5.694247631	0	-0.04061745232	0	-1.142074056	0	0	-4.750695158	0	
2323.026166	-16.4727049	88.52032831	-7.959682543	5.858273149	0	0.1094234742	-56.107671	735.7864574	-55.61625208	5.694873885	0	-0.04060878629	0	-1.443591378	0	0	-4.763815001	0	
2323.027829	-16.25151557	95.13603321	-8.298133994	5.865673017	0	0.1115850274	-56.54255451	732.5667488	-55.33375922	5.695511251	0	-0.04059481313	0	-1.752895408	0	0	-4.781594948	0	
2323.029499	-15.99783883	102.0112628	-8.620355829	5.872512464	0	0.1135057748	-56.97868292	729.226128	-55.02079692	5.696160561	0	-0.04057536097	0	-2.068712232	0	0	-4.803963403	0	
2323.031169	-15.70901704	109.1445528	-8.925015246	5.878870602	0	0.1152215293	-57.41543618	725.7620733	-54.677045	5.69682266	0	-0.04055026282	0	-2.390242703	0	0	-4.830829519	0	
2323.032831	-15.38083853	116.5324168	-9.210614239	5.884819187	0	0.1167645575	-57.85213242	722.1720115	-54.30223703	5.697498399	0	-0.04051935724	0	-2.717040119	0	0	-4.862083131	0	
2323.034495	-15.00809468	124.169597	-9.475496013	5.890421482	0	0.1181631492	-58.28802872	718.4533269	-53.89616238	5.698188629	0	-0.04048248892	0	-3.048880354	0	0	-4.897594759	0	
2323.036169	-14.58511125	132.0493555	-9.717864454	5.895731771	0	0.1194414803	-58.72232223	714.6033721	-53.45866829	5.698894199	0	-0.0404395093	0	-3.38563796	0	0	-4.937215692	0	
2323.03783	-14.10622017	140.1637781	-9.935813204	5.900795446	0	0.1206197151	-59.15415143	710.6194794	-52.98966181	5.699615947	0	-0.04039027718	0	-3.727177934	0	0	-4.980778153	0	
2323.039498	-13.56614884	148.5040666	-10.12736088	5.905649517	0	0.1217142878	-59.58259762	706.4989727	-52.48911171	5.700354696	0	-0.04033465921	0	-4.073269219	0	0	-5.02809554	0	
2323.041165	-12.96031476	157.0608014	-10.29048914	5.910323417	0	0.1227383025	-60.00668668	702.2391811	-51.95705025	5.70111125	0	-0.04027253046	0	-4.423522736	0	0	-5.078962764	0	
2323.042829	-12.28502257	165.8241628	-10.42318082	5.914839985	0	0.1237019992	-60.42539103	697.8374523	-51.3935749	5.701886387	0	-0.04020377489	0	-4.777354089	0	0	-5.133156667	0	
2323.044497	-11.53756834	174.7841035	-10.52345582	5.919216519	0	0.1246132409	-60.83763179	693.2911676	-50.79884984	5.702680853	0	-0.04012828576	0	-5.133969084	0	0	-5.190436532	0	
2323.046171	-10.71626222	183.930472	-10.58940306	5.923465829	0	0.1254779873	-61.24228122	688.597757	-50.17310741	5.703495359	0	-0.04004596607	0	-5.492368833	0	0	-5.250544688	0	
2323.047835	-9.820383994	193.2530889	-10.61920756	5.927597213	0	0.1263007313	-61.63816529	683.7547153	-49.51664931	5.704330575	0	-0.03995672891	0	-5.851370381	0	0	-5.313207212	0	
2323.049502	-8.85008866	202.7417819	-10.611172	5.931617333	0	0.1270848825	-62.02406655	678.759619	-48.82984765	5.705187125	0	-0.03986049767	0	-6.209638451	0	0	-5.378134719	0	
2323.051167	-7.80627914	212.3863884	-10.56373288	5.935530967	0	0.12783309	-62.39872718	673.6101431	-48.11314574	5.706065581	0	-0.0397572064	0	-6.565723971	0	0	-5.445023257	0	
2323.052827	-6.690462372	222.1767336	-10.47547165	5.939341618	0	0.1285475028	-62.76085218	668.3040787	-47.36705872	5.706966463	0	-0.03964679988	0	-6.918105403	0	0	-5.513555301	0	
2323.054495	-5.504602999	232.1025935	-10.34512143	5.943051991	0	0.1292299683	-63.10911287	662.8393513	-46.59217382	5.707890228	0	-0.03952923375	0	-7.265229478	0	0	-5.583400838	0	
2323.056163	-4.250986106	242.1536526	-10.17157022	5.946664351	0	0.1298821777	-63.44215047	657.2140387	-45.78915046	5.708837273	0	-0.03940447462	0	-7.605548663	0	0	-5.654218552	0	
2323.057832	-2.932097455	252.3194609	-9.953861374	5.950180761	0	0.1305057614	-63.75857993	651.4263894	-44.95871997	5.709807925	0	-0.03927249995	0	-7.937553493	0	0	-5.725657103	0	
2323.059502	-1.550526553	262.5893995	-9.691192439	5.953603238	0	0.1311023467	-64.05699391	645.474841	-44.10168509	5.710802441	0	-0.03913329804	0	-8.259798651	0	0	-5.797356497	0	
2323.061166	-0.1088950487	272.9526562	-9.382912892	5.95693383	0	0.1316735837	-64.33596686	639.358038	-43.21891918	5.711821004	0	-0.03898686789	0	-8.570922393	0	0	-5.868949534	0	
2323.062828	1.390189575	283.3982155	-9.028521644	5.960174639	0	0.1322211483	-64.59405938	633.0748496	-42.31136508	5.712863721	0	-0.03883321894	0	-8.869659534	0	0	-5.940063341	0	
2323.064499	2.944156989	293.914863	-8.627664702	5.963327805	0	0.1327467302	-64.82982257	626.6243873	-41.3800338	5.713930616	0	-0.03867237094	0	-9.154848644	0	0	-6.010320973	0	
2323.066166	4.550477141	304.4912041	-8.180133377	5.966395467	0	0.1332520111	-65.04180267	620.0060209	-40.42600292	5.715021632	0	-0.03850435361	0	-9.42543443	0	0	-6.079343074	0	
2323.067832	6.20664784	315.1156966	-7.685863189	5.969379709	0	0.1337386394	-65.2285458	613.2193948	-39.45041478	5.716136629	0	-0.03832920635	0	-9.680466454	0	0	-6.146749586	0	
2323.069494	7.910171489	325.776693	-7.144933516	5.972282507	0	0.1342082044	-65.38860279	606.2644423	-38.45447449	5.717275377	0	-0.03814697801	0	-9.919095361	0	0	-6.212161507	0	
2323.071161	9.658525631	336.4624924	-6.55756788	5.97510568	0	0.1346622133	-65.52053429	599.1413998	-37.43944779	5.718437561	0	-0.03795772654	0	-10.14056774	0	0	-6.275202665	0	
2323.072834	11.44913152	347.1613972	-5.924134711	5.977850849	0	0.1351020727	-65.62291603	591.850819	-36.40665875	5.719622776	0	-0.03776151873	0	-10.3442206	0	0	-6.335501524	0	
